<svg width="60" height="60" viewBox="0 0 60 60" fill="none" xmlns="http://www.w3.org/2000/svg">
<path d="M60 30C60 46.5685 46.5685 60 30 60C13.4315 60 0 46.5685 0 30C0 13.4315 13.4315 0 30 0C46.5685 0 60 13.4315 60 30Z" fill="#D9D9D9"/>
<path d="M40.6666 42V39.3333C40.6666 37.9188 40.1047 36.5623 39.1045 35.5621C38.1044 34.5619 36.7478 34 35.3333 34H24.6666C23.2522 34 21.8956 34.5619 20.8954 35.5621C19.8952 36.5623 19.3333 37.9188 19.3333 39.3333V42M35.3333 23.3333C35.3333 26.2789 32.9455 28.6667 30 28.6667C27.0545 28.6667 24.6666 26.2789 24.6666 23.3333C24.6666 20.3878 27.0545 18 30 18C32.9455 18 35.3333 20.3878 35.3333 23.3333Z" stroke="#1E1E1E" stroke-width="4" stroke-linecap="round" stroke-linejoin="round"/>
</svg>
