<svg width="36" height="29" viewBox="0 0 36 29" fill="none" xmlns="http://www.w3.org/2000/svg">
<g filter="url(#filter0_d_36_1536)">
<path fill-rule="evenodd" clip-rule="evenodd" d="M12.6944 0.528423C14.1167 0.480353 14.5711 0.46875 18.1922 0.46875C21.8133 0.46875 22.2678 0.480353 23.69 0.528423C25.8567 0.602185 27.76 0.998347 29.2878 2.13793C30.8156 3.27752 31.3467 4.69724 31.4456 6.31338C31.51 7.37424 31.5256 7.71321 31.5256 10.4142C31.5256 13.1153 31.51 13.4542 31.4456 14.5151C31.3467 16.1312 30.8156 17.551 29.2878 18.6905C27.76 19.8301 25.8567 20.2263 23.69 20.3001C22.2678 20.3481 21.8133 20.3597 18.1922 20.3597C14.5711 20.3597 14.1167 20.3481 12.6944 20.3001C10.5278 20.2263 8.62444 19.8301 7.09666 18.6905C5.56889 17.551 5.03778 16.1312 4.93889 14.5151C4.87444 13.4542 4.85889 13.1153 4.85889 10.4142C4.85889 7.71321 4.87444 7.37424 4.93889 6.31338C5.03778 4.69724 5.56889 3.27752 7.09666 2.13793C8.62444 0.998347 10.5278 0.602185 12.6944 0.528423ZM23.5791 2.31876C22.1736 2.27069 21.7514 2.26074 18.1914 2.26074C14.6314 2.26074 14.2091 2.27069 12.8036 2.31876C11.2858 2.37014 9.87803 2.59723 8.7947 3.4053C7.71136 4.21337 7.40692 5.26345 7.33803 6.39558C7.27359 7.444 7.26025 7.75894 7.26025 10.4144C7.26025 13.0698 7.27359 13.3848 7.33803 14.4332C7.40692 15.5653 7.71136 16.6154 8.7947 17.4235C9.87803 18.2315 11.2858 18.4586 12.8036 18.51C14.2091 18.5581 14.6314 18.568 18.1914 18.568C21.7514 18.568 22.1736 18.5581 23.5791 18.51C25.0969 18.4586 26.5047 18.2315 27.588 17.4235C28.6714 16.6154 28.9758 15.5653 29.0447 14.4332C29.1091 13.3848 29.1225 13.0698 29.1225 10.4144C29.1225 7.75894 29.1091 7.444 29.0447 6.39558C28.9758 5.26345 28.6714 4.21337 27.588 3.4053C26.5047 2.59723 25.0969 2.37014 23.5791 2.31876ZM11.3433 10.4137C11.3433 7.59328 14.4088 5.30664 18.1899 5.30664C21.971 5.30664 25.0366 7.59328 25.0366 10.4137C25.0366 13.234 21.971 15.5207 18.1899 15.5207C14.4088 15.5207 11.3433 13.234 11.3433 10.4137ZM13.7446 10.4138C13.7446 12.2446 15.7346 13.729 18.1891 13.729C20.6435 13.729 22.6335 12.2446 22.6335 10.4138C22.6335 8.583 20.6435 7.09863 18.1891 7.09863C15.7346 7.09863 13.7446 8.583 13.7446 10.4138ZM26.9075 5.10557C26.9075 5.7647 26.1912 6.29903 25.3075 6.29903C24.4239 6.29903 23.7075 5.7647 23.7075 5.10557C23.7075 4.44644 24.4239 3.91211 25.3075 3.91211C26.1912 3.91211 26.9075 4.44644 26.9075 5.10557Z" fill="#0A142F"/>
</g>
<defs>
<filter id="filter0_d_36_1536" x="0.858887" y="0.46875" width="34.6667" height="27.8911" filterUnits="userSpaceOnUse" color-interpolation-filters="sRGB">
<feFlood flood-opacity="0" result="BackgroundImageFix"/>
<feColorMatrix in="SourceAlpha" type="matrix" values="0 0 0 0 0 0 0 0 0 0 0 0 0 0 0 0 0 0 127 0" result="hardAlpha"/>
<feOffset dy="4"/>
<feGaussianBlur stdDeviation="2"/>
<feComposite in2="hardAlpha" operator="out"/>
<feColorMatrix type="matrix" values="0 0 0 0 0 0 0 0 0 0 0 0 0 0 0 0 0 0 0.25 0"/>
<feBlend mode="normal" in2="BackgroundImageFix" result="effect1_dropShadow_36_1536"/>
<feBlend mode="normal" in="SourceGraphic" in2="effect1_dropShadow_36_1536" result="shape"/>
</filter>
</defs>
</svg>
