<svg width="26" height="17" viewBox="0 0 26 17" fill="none" xmlns="http://www.w3.org/2000/svg">
<path d="M23.361 4.82663L23.3769 5.33323C23.3769 10.5064 18.1009 16.4662 8.45155 16.4662C5.48995 16.4662 2.73335 15.8186 0.41095 14.708C0.821145 14.7438 1.23923 14.7637 1.66274 14.7637C4.12102 14.7637 6.38218 14.1379 8.17724 13.0889C5.88148 13.0572 3.94518 11.9248 3.27671 10.3713C3.59895 10.417 3.9239 10.4388 4.26479 10.4388C4.7442 10.4388 5.20757 10.3932 5.64703 10.3038C3.24736 9.94218 1.43898 8.36286 1.43898 6.46764V6.41797C2.1474 6.71199 2.95439 6.8868 3.81464 6.90869C2.4084 6.20742 1.48156 5.00948 1.48156 3.65261C1.48156 2.93546 1.73992 2.26398 2.18998 1.6859C4.77609 4.05393 8.64325 5.61142 13.0031 5.77434C12.9125 5.48824 12.8673 5.18828 12.8673 4.88237C12.8673 2.72294 15.2164 0.970703 18.1141 0.970703C19.6215 0.970703 20.9852 1.44547 21.9439 2.20635C23.1371 2.02951 24.2611 1.70374 25.2758 1.25674C24.8843 2.1706 24.0534 2.93742 22.9693 3.42212C24.0267 3.32874 25.0414 3.11615 25.9816 2.80626C25.2785 3.58896 24.3863 4.27834 23.361 4.82663Z" fill="#0A142F"/>
</svg>
